<svg id="svg" version="1.1" xmlns="http://www.w3.org/2000/svg" xmlns:xlink="http://www.w3.org/1999/xlink" width="400" height="400" viewBox="0, 0, 400,400"><g id="svgg"><path id="path0" d="M33.333 56.500 C 25.101 58.263,17.639 64.973,14.661 73.290 L 13.519 76.481 13.423 178.063 C 13.315 291.702,13.089 282.297,16.078 288.333 C 19.304 294.848,24.885 299.465,32.348 301.792 C 34.062 302.326,39.999 302.399,89.907 302.498 L 145.556 302.609 145.556 212.786 L 145.556 122.963 200.185 122.963 L 254.815 122.963 254.815 212.786 L 254.815 302.609 310.463 302.498 C 372.865 302.374,367.207 302.639,373.333 299.556 C 379.000 296.705,383.547 291.364,385.855 284.851 L 386.852 282.037 386.852 179.074 L 386.852 76.111 385.859 73.394 C 382.760 64.910,375.257 58.234,366.852 56.480 C 363.042 55.685,37.048 55.705,33.333 56.500 " stroke="none" fill="#dc946c" fill-rule="evenodd"></path><path id="path1" d="M214.630 145.140 L 175.000 166.199 174.900 174.232 L 174.800 182.266 179.554 179.744 C 182.169 178.357,200.168 168.806,219.553 158.519 L 254.797 139.815 254.806 131.944 C 254.811 127.616,254.690 124.076,254.537 124.078 C 254.384 124.080,236.426 133.558,214.630 145.140 M214.736 168.291 L 174.843 189.444 174.829 197.315 C 174.821 201.644,174.942 205.185,175.097 205.185 C 175.447 205.185,254.148 163.408,254.544 163.012 C 254.701 162.854,254.785 159.218,254.730 154.932 L 254.630 147.138 214.736 168.291 M214.722 191.571 L 174.815 212.760 174.815 220.639 C 174.815 224.973,174.903 228.519,175.012 228.519 C 175.268 228.519,254.170 186.649,254.545 186.314 C 254.702 186.174,254.785 182.532,254.730 178.221 L 254.630 170.382 214.722 191.571 M214.537 214.876 L 174.815 236.006 174.815 243.960 C 174.815 248.334,174.953 251.858,175.122 251.790 C 175.291 251.722,193.291 242.172,215.122 230.568 L 254.815 209.469 254.815 201.586 C 254.815 197.251,254.690 193.713,254.537 193.725 C 254.384 193.737,236.384 203.255,214.537 214.876 M214.815 237.946 L 175.000 259.145 174.900 267.181 L 174.800 275.216 179.186 272.886 C 181.598 271.604,199.596 262.056,219.182 251.667 L 254.794 232.778 254.804 224.722 C 254.810 220.292,254.773 216.685,254.722 216.707 C 254.671 216.729,236.713 226.286,214.815 237.946 M214.733 261.246 L 174.837 282.407 174.826 290.278 C 174.820 294.606,174.940 298.147,175.093 298.145 C 175.436 298.142,254.149 256.358,254.545 255.969 C 254.702 255.815,254.785 252.178,254.730 247.886 L 254.630 240.084 214.733 261.246 M214.537 284.565 L 174.815 305.718 174.815 313.600 C 174.815 317.935,174.899 321.481,175.001 321.481 C 175.103 321.481,193.103 311.964,215.001 300.330 L 254.815 279.179 254.815 271.256 C 254.815 266.899,254.690 263.351,254.537 263.373 C 254.384 263.395,236.384 272.931,214.537 284.565 M214.630 307.782 L 175.000 328.860 174.900 336.870 L 174.800 344.880 178.419 342.977 C 180.409 341.931,198.412 332.377,218.426 321.748 L 254.815 302.421 254.815 294.544 C 254.815 290.211,254.690 286.675,254.537 286.685 C 254.384 286.695,236.426 296.189,214.630 307.782 " stroke="none" fill="#dca46c" fill-rule="evenodd"></path><path id="path2" d="M119.012 55.833 C 163.792 55.885,236.959 55.885,281.604 55.833 C 326.250 55.781,289.611 55.739,200.185 55.739 C 110.759 55.739,74.231 55.781,119.012 55.833 M27.315 58.360 C 25.879 59.139,26.041 59.408,27.500 58.666 C 28.896 57.956,29.143 57.772,28.673 57.793 C 28.486 57.801,27.875 58.056,27.315 58.360 M371.512 57.917 C 371.891 58.260,374.815 59.625,374.815 59.459 C 374.815 59.249,372.020 57.778,371.620 57.778 C 371.476 57.778,371.427 57.841,371.512 57.917 M20.542 63.426 L 18.704 65.370 20.648 63.532 C 22.455 61.825,22.762 61.481,22.486 61.481 C 22.427 61.481,21.552 62.356,20.542 63.426 M379.444 63.333 C 380.448 64.352,381.352 65.185,381.454 65.185 C 381.555 65.185,380.818 64.352,379.815 63.333 C 378.812 62.315,377.907 61.481,377.806 61.481 C 377.704 61.481,378.441 62.315,379.444 63.333 M387.220 179.259 C 387.220 234.361,387.262 256.903,387.315 229.352 C 387.367 201.801,387.367 156.718,387.315 129.167 C 387.262 101.616,387.220 124.157,387.220 179.259 M13.145 179.259 C 13.145 234.157,13.188 256.616,13.241 229.167 C 13.293 201.718,13.293 156.801,13.241 129.352 C 13.188 101.903,13.145 124.361,13.145 179.259 M172.899 123.241 C 188.040 123.294,212.707 123.294,227.714 123.241 C 242.721 123.187,230.333 123.143,200.185 123.143 C 170.037 123.143,157.758 123.187,172.899 123.241 M20.556 295.185 C 21.351 296.000,22.086 296.667,22.187 296.667 C 22.289 296.667,21.722 296.000,20.926 295.185 C 20.130 294.370,19.396 293.704,19.294 293.704 C 19.192 293.704,19.760 294.370,20.556 295.185 M379.427 295.278 L 377.963 296.852 379.537 295.388 C 380.403 294.583,381.111 293.874,381.111 293.814 C 381.111 293.534,380.789 293.814,379.427 295.278 " stroke="none" fill="#dc8c6c" fill-rule="evenodd"></path><path id="path3" d="" stroke="none" fill="#e0946c" fill-rule="evenodd"></path><path id="path4" d="" stroke="none" fill="#dc9c6c" fill-rule="evenodd"></path><path id="path5" d="" stroke="none" fill="#e0946c" fill-rule="evenodd"></path><path id="path6" d="" stroke="none" fill="#e0946c" fill-rule="evenodd"></path><path id="path7" d="" stroke="none" fill="#e0946c" fill-rule="evenodd"></path><path id="path8" d="" stroke="none" fill="#e0946c" fill-rule="evenodd"></path></g></svg>